<?xml version="1.0" standalone="no"?>
<!DOCTYPE svg PUBLIC "-//W3C//DTD SVG 20010904//EN"
 "http://www.w3.org/TR/2001/REC-SVG-20010904/DTD/svg10.dtd">
<svg version="1.0" xmlns="http://www.w3.org/2000/svg"
 width="300.000000pt" height="300.000000pt" viewBox="0 0 300.000000 300.000000"
 preserveAspectRatio="xMidYMid meet">
<metadata>
Created by potrace 1.11, written by Peter Selinger 2001-2013
</metadata>
<g transform="translate(0.000000,300.000000) scale(0.100000,-0.100000)"
fill="#000000" stroke="none">
<path d="M1214 2945 c-12 -30 -17 -34 -34 -25 -26 14 -32 13 -60 -10 -14 -11
-56 -41 -95 -67 -69 -47 -70 -49 -73 -96 -3 -50 -10 -55 -43 -34 -18 11 -25 6
-72 -43 -138 -147 -149 -161 -145 -194 19 -131 94 -494 115 -550 32 -86 32
-125 -2 -291 -48 -237 -102 -412 -184 -589 -29 -63 -44 -84 -81 -109 -119 -81
-242 -257 -344 -490 -34 -79 -45 -122 -35 -138 8 -14 187 -16 996 -8 l273 2
57 -39 c31 -21 122 -87 200 -147 79 -59 149 -107 156 -107 9 0 270 184 322
227 6 5 66 49 135 98 69 49 130 93 135 97 6 5 35 26 65 48 30 22 60 43 65 47
6 5 29 22 52 38 l43 30 -3 140 -2 140 -70 6 c-67 6 -195 39 -224 58 -21 13 8
24 101 36 25 4 68 9 95 13 l48 7 6 65 c3 36 4 207 3 380 -2 292 -3 320 -23
383 -39 121 -89 200 -213 338 -84 94 -108 138 -127 239 -7 36 -14 72 -16 81
-2 9 -6 40 -10 70 -4 30 -12 60 -19 67 -22 22 -81 26 -118 7 -78 -40 -75 -41
-71 33 l4 67 -87 65 c-47 36 -100 77 -117 92 -38 33 -38 33 -87 8 l-38 -19
-11 31 c-6 17 -11 39 -11 48 0 10 -7 21 -16 24 -9 3 -108 6 -220 6 l-205 0
-15 -35z m446 -1695 c6 -11 8 -20 6 -20 -3 0 -10 9 -16 20 -6 11 -8 20 -6 20
3 0 10 -9 16 -20z m30 -55 c14 -19 14 -19 -2 -6 -10 7 -18 18 -18 24 0 6 1 8
3 6 1 -2 9 -13 17 -24z m-167 -501 c40 -26 74 -51 75 -56 2 -4 9 -8 16 -8 15
0 71 -49 64 -56 -15 -15 -160 73 -238 143 -31 29 -32 32 -12 28 13 -2 56 -25
95 -51z m202 -152 c-6 -8 -35 12 -35 24 0 11 4 10 18 -3 10 -10 18 -19 17 -21z"/>
</g>
</svg>
